HIERARCHY
ROOT Hips
{
 OFFSET 0.000000 0.000000 0.000000
 CHANNELS 6 Xposition Yposition Zposition Yrotation Xrotation Zrotation
 JOINT Chest
 {
  OFFSET 0.000000 9.585900 0.002600
  CHANNELS 3 Yrotation Xrotation Zrotation
  JOINT Chest2
  {
   OFFSET 0.000000 9.601200 -0.005300
   CHANNELS 3 Yrotation Xrotation Zrotation
   JOINT Chest3
   {
    OFFSET 0.000000 9.561800 0.000000
    CHANNELS 3 Yrotation Xrotation Zrotation
    JOINT Chest4
    {
     OFFSET 0.000000 9.552100 0.000000
     CHANNELS 3 Yrotation Xrotation Zrotation
     JOINT Neck
     {
      OFFSET 0.000000 14.453000 0.000000
      CHANNELS 3 Yrotation Xrotation Zrotation
      JOINT Head
      {
       OFFSET 0.000000 8.936500 -0.011300
       CHANNELS 3 Yrotation Xrotation Zrotation
       End Site
       {
        OFFSET 0.000000 17.073600 -0.006000
       }
      }
     }
     JOINT RightCollar
     {
      OFFSET -2.921100 9.558500 0.000000
      CHANNELS 3 Yrotation Xrotation Zrotation
      JOINT RightShoulder
      {
       OFFSET -13.519700 0.000000 0.000000
       CHANNELS 3 Yrotation Xrotation Zrotation
       JOINT RightElbow
       {
        OFFSET 0.000000 -29.696600 0.000000
        CHANNELS 3 Yrotation Xrotation Zrotation
        JOINT RightWrist
        {
         OFFSET 0.000000 -24.004700 0.000000
         CHANNELS 3 Yrotation Xrotation Zrotation
         End Site
         {
          OFFSET 0.000000 -17.728500 0.000000
         }
        }
       }
      }
     }
     JOINT LeftCollar
     {
      OFFSET 2.921100 9.558500 0.000000
      CHANNELS 3 Yrotation Xrotation Zrotation
      JOINT LeftShoulder
      {
       OFFSET 13.519700 0.000000 0.000000
       CHANNELS 3 Yrotation Xrotation Zrotation
       JOINT LeftElbow
       {
        OFFSET 0.000000 -29.696600 0.000000
        CHANNELS 3 Yrotation Xrotation Zrotation
        JOINT LeftWrist
        {
         OFFSET 0.000000 -24.004700 0.000000
         CHANNELS 3 Yrotation Xrotation Zrotation
         End Site
         {
          OFFSET 0.000000 -17.728500 0.000000
         }
        }
       }
      }
     }
    }
   }
  }
 }
 JOINT RightHip
 {
  OFFSET -7.771700 -0.012900 -0.001300
  CHANNELS 3 Yrotation Xrotation Zrotation
  JOINT RightKnee
  {
   OFFSET 0.000000 -40.869800 0.001200
   CHANNELS 3 Yrotation Xrotation Zrotation
   JOINT RightAnkle
   {
    OFFSET 0.000000 -39.717900 0.002100
    CHANNELS 3 Yrotation Xrotation Zrotation
    JOINT RightToe
    {
     OFFSET 0.000000 -4.965400 11.033500
     CHANNELS 3 Yrotation Xrotation Zrotation
     End Site
     {
      OFFSET 0.000000 -1.423100 5.872300
     }
    }
   }
  }
 }
 JOINT LeftHip
 {
  OFFSET 7.771700 -0.012900 -0.001300
  CHANNELS 3 Yrotation Xrotation Zrotation
  JOINT LeftKnee
  {
   OFFSET 0.000000 -40.869800 0.001200
   CHANNELS 3 Yrotation Xrotation Zrotation
   JOINT LeftAnkle
   {
    OFFSET 0.000000 -39.717900 0.002100
    CHANNELS 3 Yrotation Xrotation Zrotation
    JOINT LeftToe
    {
     OFFSET 0.000000 -4.965400 11.033500
     CHANNELS 3 Yrotation Xrotation Zrotation
     End Site
     {
      OFFSET 0.000000 -1.423100 5.872300
     }
    }
   }
  }
 }
}
MOTION
Frames: 16
Frame Time: 0.008333
0.000000 85.388000 0.000000 0.000000 -5.767877 0.000000 0.000000 11.653817 0.000000 0.000000 -5.885947 0.000000 0.000000 -0.000000 0.000000 0.000000 -0.000000 0.000000 0.000000 12.528835 0.000000 0.000000 0.711642 0.000000 0.000000 -0.000000 0.000000 0.000000 0.000000 -90.000000 0.000000 -2.309062 0.000000 0.000000 2.309062 0.000000 0.000000 -0.000000 0.000000 0.000000 -0.000000 90.000000 0.000000 -2.309062 0.000000 0.000000 2.309062 0.000000 0.000000 8.520406 0.000000 0.000000 1.905762 0.000000 -0.000000 -4.658285 0.000000 0.000000 -0.000000 0.000000 0.000000 8.520406 0.000000 0.000000 1.905762 0.000000 -0.000000 -4.658285 0.000000 0.000000 -0.000000 0.000000
-15.382017 57.529798 69.989883 -179.737229 -27.061930 -1.695583 2.027607 23.450933 5.684626 0.113834 3.563155 0.603268 0.138814 5.778268 0.941324 1.162339 19.731173 3.547330 -1.886672 14.509272 -2.101848 -2.977418 -8.843874 -3.327539 7.699538 -5.524140 -6.958893 16.051685 -17.855510 -11.198817 89.181340 -87.226467 -55.363000 11.716595 -6.085916 -28.889736 -9.485415 -10.127420 0.326878 -10.115177 -6.234513 2.917004 36.454434 -2.802848 -82.411200 21.643983 -18.467159 27.318499 8.679359 -44.662508 -4.239995 -2.190006 67.113358 -4.734763 4.968245 8.427942 9.085024 0.035644 0.242034 -0.004242 -7.102456 -52.045968 3.255713 24.146436 66.444059 24.323849 -16.002372 32.853147 1.269996 -1.208588 -16.744177 -6.182354
-15.379745 57.521547 69.980486 -179.808124 -27.020955 -1.669074 2.027927 23.473534 5.630780 0.116456 3.564733 0.601275 0.139194 5.713230 0.937483 1.168256 19.712789 3.536232 -1.928118 14.554689 -2.142861 -2.835866 -8.877933 -3.396103 7.436227 -5.590739 -6.943878 15.887837 -17.702132 -10.969997 86.916777 -87.200646 -52.980333 11.819790 -6.208872 -28.905382 -9.358346 -10.104461 0.389050 -10.110172 -6.259099 2.872640 36.299579 -2.779176 -82.334113 21.690277 -18.406898 27.408211 8.705471 -44.723947 -4.240108 -2.142581 67.138983 -4.662111 4.970119 8.411020 9.043945 0.038632 0.239384 -0.003649 -7.043808 -52.088009 3.248244 24.137066 66.475791 24.341393 -15.987380 32.767261 1.244276 -1.199372 -16.622937 -6.171376
-15.369497 57.515683 69.962965 -179.912870 -27.021619 -1.675496 2.015376 23.475875 5.586338 0.116810 3.540388 0.595177 0.229600 5.725663 0.970346 1.119703 19.631657 3.510555 -1.835424 14.568948 -2.205909 -2.606512 -8.752386 -3.442270 7.170179 -5.588448 -6.891423 15.752390 -17.583498 -10.787087 86.041726 -87.145779 -52.022839 11.913381 -6.296225 -28.889672 -9.228708 -9.999349 0.406948 -10.109620 -6.301171 2.811043 36.194435 -2.857673 -82.251320 21.700765 -18.286011 27.541638 8.690906 -44.748057 -4.157512 -2.060768 67.158113 -4.546506 4.972123 8.404166 8.980058 0.038220 0.231228 0.000758 -7.003389 -52.089806 3.296151 24.110410 66.541806 24.378543 -15.979624 32.636616 1.180957 -1.177659 -16.522886 -6.156984
-15.364192 57.507079 69.948110 -179.986574 -26.995194 -1.666800 1.971064 23.407172 5.531958 0.114839 3.512550 0.590450 0.226309 5.683547 0.962926 1.130250 19.597214 3.508595 -1.647396 14.651279 -2.223628 -2.248313 -8.597043 -3.546905 6.909710 -5.535180 -6.816066 15.651141 -17.496781 -10.641032 86.210247 -87.066453 -52.152376 11.981899 -6.344044 -28.846339 -9.098267 -9.836216 0.382645 -10.113037 -6.356744 2.728701 36.132295 -3.049547 -82.164097 21.686365 -18.121911 27.718237 8.718351 -44.796585 -4.139923 -2.017334 67.187749 -4.458767 4.969558 8.388883 8.937102 0.040462 0.227774 -0.002090 -6.951396 -52.127863 3.295546 24.127529 66.584877 24.446406 -15.984990 32.573079 1.140626 -1.159825 -16.483418 -6.149774
-15.359090 57.500214 69.929114 179.968588 -26.994167 -1.669520 1.910214 23.349401 5.494127 0.111770 3.486173 0.586983 0.198065 5.616262 0.950376 1.137969 19.566763 3.506930 -1.389191 14.757162 -2.238347 -1.760615 -8.396043 -3.671679 6.647646 -5.449353 -6.724118 15.582696 -17.446359 -10.524335 86.971427 -86.974528 -52.918017 12.018166 -6.347546 -28.778533 -8.975779 -9.642468 0.332071 -10.120752 -6.426978 2.622174 36.116859 -3.347765 -82.076852 21.646859 -17.915392 27.943374 8.690558 -44.819263 -4.132237 -1.906417 67.226825 -4.276906 4.967936 8.370292 8.851425 0.047737 0.225164 -0.003263 -6.922860 -52.142130 3.286123 24.160933 66.628790 24.530308 -15.990664 32.515012 1.104073 -1.153479 -16.434048 -6.143224
-15.354732 57.491789 69.914011 179.936416 -26.970570 -1.671679 1.832319 23.258373 5.451763 0.109166 3.459303 0.583736 0.193681 5.575367 0.945523 1.123985 19.507019 3.501597 -1.068519 14.876481 -2.247004 -1.159287 -8.167845 -3.807487 6.369386 -5.348809 -6.611056 15.538497 -17.440146 -10.432896 87.908665 -86.890933 -53.888543 12.033476 -6.308658 -28.693053 -8.855708 -9.430610 0.264296 -10.148007 -6.526673 2.505379 36.163539 -3.726354 -81.996006 21.572808 -17.642909 28.222987 8.651242 -44.866158 -4.121550 -1.799685 67.265626 -4.121651 4.969089 8.358737 8.779230 0.050067 0.220951 -0.007948 -6.869362 -52.198334 3.223574 24.258939 66.660029 24.695449 -15.931971 32.546066 1.143899 -1.206406 -16.463501 -6.165102
-15.340526 57.484882 69.898810 179.792409 -26.959887 -1.678710 1.881214 23.166105 5.473105 0.107277 3.433642 0.580755 0.190486 5.536331 0.941036 1.114122 19.449529 3.497529 -0.690201 15.003966 -2.247934 -0.454114 -7.921746 -3.948946 6.072221 -5.239298 -6.476374 15.502521 -17.490322 -10.368104 88.869362 -86.831702 -54.889794 12.045604 -6.241309 -28.587623 -8.729979 -9.208927 0.122992 -10.198623 -6.657306 2.453621 36.266294 -4.154564 -81.928101 21.460357 -17.298942 28.546749 8.581660 -44.915644 -3.985865 -1.607499 67.280105 -3.916610 4.972206 8.388490 8.709021 0.040995 0.198897 -0.021382 -6.822234 -52.216808 3.312742 24.284942 66.719294 24.779891 -15.988548 32.456249 1.051466 -1.161050 -16.420028 -6.140650
-15.324613 57.481215 69.880628 179.671988 -26.980453 -1.702032 1.910387 23.097993 5.502717 0.105529 3.410231 0.578149 0.187574 5.500756 0.937082 1.105160 19.396790 3.494288 -0.257111 15.137637 -2.242559 0.349775 -7.660738 -4.097262 5.767214 -5.115625 -6.330208 15.461855 -17.609639 -10.336616 90.007653 -86.802423 -56.057235 12.062549 -6.153195 -28.462048 -8.603874 -8.991500 -0.027398 -10.234082 -6.832365 2.413784 36.391670 -4.608588 -81.876269 21.317774 -16.904520 28.897745 8.537210 -44.920238 -3.838138 -1.530469 67.287403 -3.828818 4.979426 8.399321 8.660509 0.042633 0.190934 -0.013490 -6.795747 -52.202101 3.402140 24.328438 66.775587 24.887058 -16.059416 32.363211 0.948128 -1.111614 -16.376885 -6.113463
-15.309965 57.479429 69.862687 179.606800 -27.011662 -1.737646 1.876291 23.037693 5.517552 0.103340 3.389288 0.575892 0.183975 5.468965 0.933676 1.093563 19.349486 3.491462 0.226766 15.277103 -2.232096 1.245096 -7.385047 -4.252800 5.466657 -4.971845 -6.179886 15.418229 -17.804575 -10.349333 91.543993 -86.801896 -57.597816 12.078321 -6.041587 -28.325934 -8.461270 -8.773072 -0.186547 -10.244521 -7.066304 2.390762 36.507950 -5.062942 -81.839356 21.154579 -16.477068 29.265630 8.450469 -44.907227 -3.732078 -1.432079 67.300036 -3.680109 4.991529 8.400534 8.569827 0.049461 0.189572 -0.005991 -6.783016 -52.185310 3.441707 24.409137 66.817505 25.041979 -16.111639 32.318868 0.887986 -1.100396 -16.353787 -6.107217
-15.293150 57.479483 69.845805 179.487052 -27.052954 -1.756243 1.887572 22.981418 5.537774 0.100952 3.370636 0.573618 0.180012 5.440573 0.930225 1.080128 19.307363 3.487066 0.752196 15.423101 -2.212335 2.212715 -7.093100 -4.403841 5.171483 -4.804095 -6.018750 15.375620 -18.079009 -10.417932 93.511662 -86.828663 -59.532139 12.099007 -5.905328 -28.182481 -8.298592 -8.546072 -0.358626 -10.221692 -7.366584 2.399834 36.590772 -5.486564 -81.812055 20.975708 -16.028858 29.638070 8.400353 -44.887607 -3.615803 -1.344943 67.301373 -3.539798 5.025606 8.417341 8.489455 0.040376 0.183580 -0.007485 -6.702355 -52.163971 3.440440 24.544161 66.853581 25.283959 -16.088089 32.305324 0.885683 -1.134030 -16.390679 -6.131411
-15.275137 57.481730 69.829513 179.368877 -27.106920 -1.777833 1.901500 22.934303 5.558235 0.099340 3.354197 0.570970 0.177224 5.415427 0.926122 1.070508 19.270337 3.479673 1.305774 15.573715 -2.177228 3.225222 -6.788748 -4.533766 4.875030 -4.612894 -5.833258 15.337037 -18.434118 -10.557673 95.813044 -86.883027 -61.757787 12.141485 -5.753111 -28.027263 -8.131573 -8.307030 -0.528434 -10.154213 -7.739473 2.439316 36.623342 -5.854901 -81.789060 20.783743 -15.574064 30.000074 8.384252 -44.849684 -3.499250 -1.353906 67.295246 -3.489123 5.050662 8.438170 8.441393 0.042218 0.177074 -0.024228 -6.663824 -52.114461 3.498847 24.621654 66.891713 25.434447 -16.117945 32.253021 0.824411 -1.120892 -16.387994 -6.126183
-15.256693 57.485658 69.814847 179.261397 -27.166870 -1.802735 1.907130 22.891034 5.575732 0.098241 3.339569 0.567984 0.175291 5.393128 0.921458 1.063623 19.237664 3.469761 1.877510 15.725276 -2.128787 4.264888 -6.479150 -4.642528 4.588532 -4.395782 -5.621774 15.315599 -18.866387 -10.788957 98.482773 -86.960146 -64.318410 12.203008 -5.591641 -27.857054 -7.963026 -8.050192 -0.700447 -10.036635 -8.187150 2.513069 36.598674 -6.156045 -81.773434 20.586462 -15.130381 30.343958 8.291073 -44.804338 -3.356080 -1.274635 67.285239 -3.371346 5.077802 8.454673 8.360179 0.037947 0.176420 -0.029132 -6.641587 -52.055974 3.558901 24.693184 66.926291 25.576222 -16.137898 32.197115 0.761198 -1.105875 -16.374928 -6.121406
-15.236770 57.490762 69.802794 179.156667 -27.226887 -1.834496 1.900255 22.848267 5.598751 0.095629 3.326256 0.565209 0.171018 5.372893 0.917109 1.047790 19.208233 3.459103 2.461439 15.873063 -2.077085 5.324540 -6.172983 -4.747024 4.340015 -4.151953 -5.401876 15.330177 -19.366888 -11.123118 101.576848 -87.044773 -67.275051 12.273877 -5.421581 -27.682170 -7.771872 -7.771042 -0.903172 -9.869477 -8.706293 2.628930 36.516300 -6.387744 -81.764597 20.401381 -14.709197 30.662235 8.185826 -44.756207 -3.203079 -1.190405 67.267235 -3.248850 5.108535 8.474465 8.270161 0.034181 0.175811 -0.029402 -6.638387 -51.993568 3.642711 24.729719 66.960448 25.678267 -16.173182 32.141558 0.676085 -1.072872 -16.359662 -6.109465
-15.218549 57.497022 69.792857 179.050328 -27.289804 -1.852863 1.871668 22.813488 5.610195 0.090534 3.314439 0.563226 0.162754 5.354945 0.913907 1.017334 19.182363 3.450061 3.045505 16.009116 -2.030079 6.385082 -5.885250 -4.858297 4.135393 -3.891976 -5.187419 15.401300 -19.922081 -11.559441 104.974653 -87.118776 -70.509696 12.350589 -5.244225 -27.527937 -7.555097 -7.467871 -1.148022 -9.658552 -9.297572 2.783648 36.384029 -6.554338 -81.751119 20.239115 -14.306922 30.943814 8.115616 -44.701933 -3.079154 -1.134283 67.246795 -3.146034 5.143626 8.493561 8.185793 0.032873 0.175891 -0.034666 -6.634858 -51.926608 3.704207 24.775975 66.985096 25.788740 -16.187516 32.100206 0.619020 -1.047901 -16.355896 -6.124929
-15.201397 57.503969 69.785574 178.941937 -27.351817 -1.862071 1.836995 22.780758 5.616473 0.084839 3.303408 0.562028 0.153461 5.338203 0.911891 0.983646 19.158012 3.444568 3.606678 16.127799 -1.986000 7.403660 -5.628014 -4.965376 3.946101 -3.621741 -4.968419 15.541063 -20.514831 -12.088611 108.480118 -87.168533 -73.839423 12.421334 -5.064019 -27.412471 -7.349093 -7.132207 -1.408062 -9.413035 -9.958775 2.964237 36.220459 -6.668131 -81.728684 20.093899 -13.906990 31.189588 8.055575 -44.641450 -2.971023 -1.076479 67.218625 -3.038847 5.174372 8.493011 8.120218 0.033783 0.197596 -0.050772 -6.634326 -51.859340 3.748183 24.837552 67.000252 25.915759 -16.164466 32.069972 0.571975 -1.074833 -16.357624 -6.132365
